# xmcd CD database file
#
# Track frame offsets:
#	150
#	16178
#	38853
#	55890
#	70890
#	89038
#	106808
#	126355
#	141100
#	159910
#	181213
#	197661
#	210428
#	225153
#
# Disc length: 3214 seconds
#
# Revision: 3
# Processed by: cddbd v1.5.2PL0 Copyright (c) Steve Scherf et al.
# Submitted via: CDex 1.51
#
DISCID=b40c8c0e
DTITLE=Bill Wyman's Rhythm Kings - Just For A Thrill
DYEAR=2004
DGENRE=Blues
TTITLE0=Roll 'em Pete
TTITLE1=This Ain't United Nations
TTITLE2=Disappearing Nightly
TTITLE3=Memphis Woman
TTITLE4=Down Home Girl
TTITLE5=Town Living
TTITLE6=Cry Baby
TTITLE7=Just For A Thrill
TTITLE8=Taxman
TTITLE9=Booty Ooty
TTITLE10=Mississippi Ilyer
TTITLE11=You Don't Know
TTITLE12=That's How Heartaches Are Made
TTITLE13=Cadillac Woman
EXTD=YEAR: 2004
EXTT0=
EXTT1=
EXTT2=
EXTT3=
EXTT4=
EXTT5=
EXTT6=
EXTT7=
EXTT8=
EXTT9=
EXTT10=
EXTT11=
EXTT12=
EXTT13=
PLAYORDER=
